<svg xmlns="http://www.w3.org/2000/svg" viewBox="0 0 512 512" fill="none">
  <defs>
    <linearGradient id="bg" x1="64" y1="48" x2="448" y2="464" gradientUnits="userSpaceOnUse">
      <stop stop-color="#07141E"/>
      <stop offset="1" stop-color="#13273A"/>
    </linearGradient>
    <linearGradient id="leaf" x1="146" y1="122" x2="352" y2="384" gradientUnits="userSpaceOnUse">
      <stop stop-color="#5EE89A"/>
      <stop offset="1" stop-color="#1FB978"/>
    </linearGradient>
    <linearGradient id="ring" x1="170" y1="164" x2="360" y2="360" gradientUnits="userSpaceOnUse">
      <stop stop-color="#D6FFF0" stop-opacity="0.95"/>
      <stop offset="1" stop-color="#93EAC4" stop-opacity="0.5"/>
    </linearGradient>
  </defs>
  <rect x="32" y="32" width="448" height="448" rx="128" fill="url(#bg)"/>
  <path d="M256 92c72.902 0 132 59.098 132 132 0 88.816-58.408 157.507-149.327 196.938-8.252 3.578-17.609-2.437-17.609-11.432V306.078c0-39.764 32.236-72 72-72h42.405C322.922 170.331 294.92 132 256 132c-48.601 0-88 39.399-88 88 0 24.856 10.301 47.305 26.867 63.307l-28.346 28.346C142.07 288.3 124 255.859 124 220c0-70.692 57.308-128 128-128Z" fill="url(#leaf)"/>
  <path d="M267.339 148c49.66 0 90.025 40.429 90.025 90.169 0 48.49-33.297 88.866-78.188 99.319v-31.299c27.546-8.713 47.551-34.548 47.551-65.091 0-37.715-30.598-68.364-68.326-68.364-37.729 0-68.326 30.649-68.326 68.364 0 22.618 11.007 42.666 27.977 55.112l-22.307 22.369C173.98 300.919 160 272.172 160 240.733 160 189.747 201.103 148 252.087 148h15.252Z" fill="url(#ring)"/>
  <circle cx="323" cy="192" r="22" fill="#E7FFF4" fill-opacity="0.92"/>
</svg>
